<?xml version="1.0" encoding="utf-8"?>
<!-- Generator: Adobe Illustrator 16.0.0, SVG Export Plug-In . SVG Version: 6.00 Build 0)  -->
<!DOCTYPE svg PUBLIC "-//W3C//DTD SVG 1.1//EN" "http://www.w3.org/Graphics/SVG/1.1/DTD/svg11.dtd">
<svg version="1.1"
	 id="svg2" xmlns:rdf="http://www.w3.org/1999/02/22-rdf-syntax-ns#" xmlns:cc="http://creativecommons.org/ns#" xmlns:dc="http://purl.org/dc/elements/1.1/"
	 xmlns="http://www.w3.org/2000/svg" xmlns:xlink="http://www.w3.org/1999/xlink" x="0px" y="0px" width="1000px" height="1000px"
	 viewBox="0 0 1000 1000" enable-background="new 0 0 1000 1000" xml:space="preserve">
<g id="flowRoot3336" transform="matrix(1.8595,0,0,1.8595,-30.174,333.87)">
	<path id="path4379" fill="#FFFFFF" d="M107.487,75.354c8.174,0,14.517,2.153,19.028,6.46c4.512,4.307,7.017,9.199,7.515,14.678
		h-8.525c-0.967-4.16-2.901-7.456-5.801-9.887c-2.871-2.432-6.914-3.648-12.129-3.648c-6.357,0-11.499,2.241-15.425,6.724
		c-3.897,4.453-5.845,11.294-5.845,20.522c0,7.558,1.758,13.696,5.273,18.413c3.545,4.688,8.818,7.032,15.82,7.032
		c6.445,0,11.353-2.476,14.722-7.427c1.787-2.607,3.12-6.035,3.999-10.283h8.525c-0.762,6.797-3.281,12.495-7.559,17.095
		c-5.127,5.537-12.041,8.306-20.742,8.306c-7.5,0-13.799-2.27-18.896-6.812c-6.709-6.006-10.063-15.278-10.063-27.817
		c0-9.521,2.52-17.329,7.559-23.423C90.392,78.665,97.907,75.355,107.487,75.354L107.487,75.354z"/>
	<path id="path4381" fill="#FFFFFF" d="M151.037,120.834c0.205,3.663,1.069,6.636,2.593,8.921c2.901,4.278,8.013,6.416,15.337,6.416
		c3.281,0,6.27-0.469,8.965-1.406c5.215-1.816,7.822-5.068,7.822-9.756c0-3.516-1.099-6.021-3.296-7.515
		c-2.227-1.465-5.713-2.739-10.459-3.823l-8.745-1.977c-5.713-1.289-9.756-2.71-12.129-4.263c-4.102-2.695-6.152-6.724-6.152-12.085
		c0-5.801,2.007-10.562,6.02-14.282c4.014-3.721,9.697-5.581,17.051-5.581c6.767,0,12.51,1.641,17.227,4.922
		c4.746,3.252,7.119,8.467,7.119,15.645h-8.218c-0.439-3.457-1.377-6.108-2.812-7.954c-2.666-3.369-7.193-5.054-13.579-5.054
		c-5.156,0-8.862,1.084-11.118,3.252c-2.256,2.168-3.384,4.687-3.384,7.558c0,3.164,1.318,5.479,3.955,6.943
		c1.728,0.937,5.639,2.11,11.733,3.516l9.053,2.066c4.365,0.996,7.734,2.359,10.107,4.087c4.102,3.018,6.152,7.398,6.152,13.14
		c0,7.149-2.607,12.261-7.822,15.337c-5.186,3.076-11.22,4.614-18.105,4.614c-8.027,0-14.312-2.051-18.853-6.152
		c-4.541-4.072-6.768-9.594-6.68-16.567h8.218V120.834z"/>
	<path id="path4383" fill="#FFFFFF" d="M210.977,120.834c0.205,3.663,1.069,6.636,2.593,8.921c2.9,4.278,8.013,6.416,15.337,6.416
		c3.281,0,6.27-0.469,8.965-1.406c5.215-1.816,7.822-5.068,7.822-9.756c0-3.516-1.099-6.021-3.296-7.515
		c-2.227-1.465-5.713-2.739-10.459-3.823l-8.745-1.977c-5.713-1.289-9.756-2.71-12.129-4.263c-4.102-2.695-6.152-6.724-6.152-12.085
		c0-5.801,2.007-10.562,6.021-14.282c4.014-3.721,9.697-5.581,17.051-5.581c6.767,0,12.51,1.641,17.227,4.922
		c4.746,3.252,7.119,8.467,7.119,15.645h-8.218c-0.439-3.457-1.376-6.108-2.812-7.954c-2.666-3.369-7.192-5.054-13.579-5.054
		c-5.156,0-8.862,1.084-11.118,3.252c-2.256,2.168-3.384,4.687-3.384,7.558c0,3.164,1.318,5.479,3.955,6.943
		c1.728,0.937,5.639,2.11,11.733,3.516l9.053,2.066c4.365,0.996,7.734,2.359,10.107,4.087c4.102,3.018,6.152,7.398,6.152,13.14
		c0,7.149-2.607,12.261-7.822,15.337c-5.185,3.076-11.22,4.614-18.105,4.614c-8.027,0-14.312-2.051-18.853-6.152
		c-4.541-4.072-6.768-9.594-6.68-16.567h8.218v-0.002H210.977z"/>
	<path id="path4385" fill="#FFFFFF" d="M80.06,189.604h12.524l18.545,54.58l18.413-54.58h12.393v64.556h-8.306v-38.101
		c0-1.318,0.029-3.501,0.088-6.548c0.059-3.047,0.088-6.313,0.088-9.8l-18.413,54.448h-8.657L88.19,199.711v1.978
		c0,1.582,0.029,3.999,0.088,7.251c0.088,3.223,0.132,5.596,0.132,7.119v38.101h-8.35V189.604L80.06,189.604z"/>
	<path id="path4387" fill="#FFFFFF" d="M183.197,187.854c11.397,0,19.834,3.662,25.312,10.986
		c4.277,5.713,6.416,13.022,6.416,21.929c0,9.639-2.446,17.651-7.339,24.038c-5.742,7.5-13.931,11.25-24.565,11.25
		c-9.931,0-17.739-3.281-23.423-9.843c-5.068-6.328-7.602-14.326-7.602-23.994c0-8.731,2.168-16.201,6.504-22.412
		C164.066,191.839,172.298,187.855,183.197,187.854L183.197,187.854z M184.076,248.235c7.705,0,13.272-2.754,16.699-8.262
		c3.457-5.537,5.186-11.895,5.186-19.072c0-7.588-1.992-13.696-5.977-18.325c-3.955-4.629-9.375-6.943-16.26-6.943
		c-6.68,0-12.129,2.3-16.348,6.9c-4.219,4.57-6.328,11.323-6.328,20.259c0,7.149,1.802,13.184,5.405,18.105
		C170.086,245.789,175.96,248.235,184.076,248.235L184.076,248.235z"/>
	<path id="path4389" fill="#FFFFFF" d="M250.087,246.694c2.959,0,5.39-0.308,7.295-0.923c3.398-1.143,6.182-3.34,8.35-6.592
		c1.728-2.607,2.974-5.947,3.736-10.02c0.44-2.432,0.659-4.688,0.659-6.767c0-7.998-1.596-14.209-4.79-18.633
		c-3.167-4.42-8.28-6.63-15.34-6.63h-15.513v49.57h15.601L250.087,246.694z M225.697,189.609h26.147
		c8.877,0,15.762,3.149,20.654,9.448c4.365,5.683,6.548,12.963,6.548,21.841c0,6.855-1.289,13.052-3.867,18.589
		c-4.541,9.786-12.349,14.678-23.423,14.678h-26.06v-64.556H225.697z"/>
	<path id="path4391" fill="#FFFFFF" d="M299.827,189.604v39.902c0,4.687,0.879,8.583,2.637,11.689
		c2.608,4.688,7.002,7.032,13.184,7.032c7.412,0,12.451-2.534,15.117-7.603c1.435-2.753,2.153-6.46,2.153-11.118v-39.902h8.877
		v36.255c0,7.939-1.07,14.047-3.208,18.325c-3.926,7.793-11.337,11.689-22.236,11.689c-10.899,0-18.296-3.896-22.192-11.689
		c-2.139-4.276-3.208-10.386-3.208-18.325v-36.255h8.877H299.827z"/>
	<path id="path4393" fill="#FFFFFF" d="M355.207,189.604h8.745v56.865h32.695v7.69h-41.439V189.604L355.207,189.604z"/>
	<path id="path4395" fill="#FFFFFF" d="M406.137,189.604h47.065v7.91h-38.54v19.6h35.64v7.471h-35.64v21.885h39.199v7.691h-47.725
		v-64.556L406.137,189.604z"/>
	<path id="path4397" fill="#FFFFFF" d="M471.127,233.334c0.205,3.662,1.069,6.636,2.592,8.921c2.901,4.278,8.013,6.416,15.337,6.416
		c3.281,0,6.27-0.468,8.965-1.406c5.215-1.817,7.823-5.068,7.823-9.756c0-3.516-1.099-6.021-3.296-7.514
		c-2.227-1.465-5.713-2.739-10.459-3.823l-8.745-1.978c-5.713-1.289-9.756-2.71-12.129-4.262c-4.102-2.696-6.152-6.724-6.152-12.085
		c0-5.801,2.007-10.561,6.021-14.282c4.013-3.72,9.697-5.581,17.051-5.581c6.767,0,12.51,1.641,17.227,4.922
		c4.746,3.252,7.119,8.467,7.119,15.645h-8.217c-0.44-3.457-1.377-6.108-2.813-7.954c-2.666-3.37-7.192-5.054-13.579-5.054
		c-5.156,0-8.862,1.084-11.118,3.252c-2.256,2.168-3.384,4.688-3.384,7.558c0,3.164,1.318,5.479,3.955,6.944
		c1.728,0.937,5.639,2.109,11.733,3.516l9.052,2.066c4.365,0.996,7.734,2.358,10.107,4.086c4.102,3.018,6.152,7.398,6.152,13.14
		c0,7.149-2.607,12.261-7.822,15.337c-5.186,3.076-11.221,4.615-18.105,4.615c-8.027,0-14.312-2.051-18.853-6.152
		c-4.541-4.072-6.768-9.595-6.68-16.567h8.218V233.334L471.127,233.334z"/>
</g>
<rect id="rect4156" x="76.205" y="152.49" fill="none" stroke="#FFFFFF" stroke-width="5" width="695.02" height="695.02"/>
</svg>
